<?xml version="1.0"?><svg version="1.2" baseProfile="tiny-ps" viewBox="0 0 300 300" xmlns="http://www.w3.org/2000/svg" xmlns:xlink="http://www.w3.org/1999/xlink"><title>Zyma_Systems</title><g><g fill="#fffff1" transform="matrix(.1 0 0 -.1 0 300)"><path d="M0 1500V0h3000v3000H0V1500z"/></g><g fill="#c1c0b6" transform="matrix(.1 0 0 -.1 0 300)"><path d="M0 1500V0h3000v3000H0V1500zm2140 585v-45l-49-67c-26-38-85-119-130-181-44-63-81-118-81-123v-9h270v-100h-410v100l130 179c72 99 130 184 130 190v11h-260v90h400v-45zm-80-642c42-17 77-48 97-87l15-29-13-8c-7-4-29-10-48-14l-35-7-26 31-25 31-33 10-34 9-28-6c-16-3-38-14-49-25l-21-19v-17c0-10 7-27 15-39l15-21 82-28c46-15 100-35 121-46l38-19 19-32 20-32V993l-22-33-23-33-39-21-40-20-58-4-58-4-47 12-48 12-33 25c-34 26-72 78-72 100 0 13 14 18 72 28l36 7 16-31 16-31 30-15 29-15h82l24 25 25 24v40l-22 25-23 25-80 27c-100 33-124 45-155 79l-25 27v127l30 31c32 34 59 48 115 60l35 8 45-5c25-3 61-12 80-20z"/></g><g fill="#f7951c" transform="matrix(.1 0 0 -.1 0 300)"><path d="M0 1500V0h3000v3000H0V1500zm2150 593v-48l-134-185-133-185 133-3 134-3v-109h-420v95l135 185 135 185-135 3-135 3v109h420v-47zm-68-655 42-23 23-34c13-19 23-42 23-51v-17l-29-6c-16-3-40-9-55-13l-26-6v14c0 8-11 25-24 37l-25 23-43 5-43 4-25-13-25-13-3-29-3-28 17-19 17-19 82-25 81-25 34-23c19-12 45-38 57-56l23-34v-73l-22-44-23-44-48-25-49-25-76 1h-77l-46 22c-55 26-83 53-103 103l-16 37 8 4c4 2 24 7 45 11s44 9 51 12l13 5 22-36 21-36 37-15 36-16 33 7c18 3 40 13 49 21l15 15v56l-22 20-23 20-70 23c-38 13-86 31-107 41l-36 19-20 28c-11 15-23 44-27 64l-7 36 20 44 19 45 30 21c16 11 44 25 63 31l35 10 68-4 68-4 41-23z"/></g><g fill="#b5701f" transform="matrix(.1 0 0 -.1 0 300)"><path d="M0 1500V0h3000v3000H0V1500zm1610-5V680h-110v570h-7c-5 0-70-110-147-245-76-135-141-245-145-245-3 0-27 13-53 28l-48 28 49 85c147 257 232 412 227 416-2 3-46-20-98-50-309-182-388-227-395-227-4 0-20 22-35 49l-28 49 203 117c111 65 221 129 245 143 23 13 42 28 42 33v9H740v120l285 2 286 3-236 135c-129 74-240 137-246 141l-11 6 26 52c15 28 28 51 30 51s115-63 251-141c136-77 249-138 251-136 3 2-58 113-136 246-77 132-140 245-140 250s21 21 46 36l46 27 8-8c7-9 181-306 249-426 18-32 37-58 42-58h9v570h110v-815zm540 598v-48l-134-185-133-185 133-3 134-3v-109h-420v95l135 185 135 185-135 3-135 3v109h420v-47zm-68-655 42-23 23-34c13-19 23-42 23-51v-17l-29-6c-16-3-40-9-55-13l-26-6v14c0 8-11 25-24 37l-25 23-43 5-43 4-25-13-25-13-3-29-3-28 17-19 17-19 82-25 81-25 34-23c19-12 45-38 57-56l23-34v-73l-22-44-23-44-48-25-49-25-76 1h-77l-46 22c-55 26-83 53-103 103l-16 37 8 4c4 2 24 7 45 11s44 9 51 12l13 5 22-36 21-36 37-15 36-16 33 7c18 3 40 13 49 21l15 15v56l-22 20-23 20-70 23c-38 13-86 31-107 41l-36 19-20 28c-11 15-23 44-27 64l-7 36 20 44 19 45 30 21c16 11 44 25 63 31l35 10 68-4 68-4 41-23z"/></g><g fill="#6c5a45" transform="matrix(.1 0 0 -.1 0 300)"><path d="M0 1500V0h3000v3000H0V1500zm1618-2 2-818h-130l-2 282-3 281-139-246-139-246-36 19c-20 10-44 25-55 33l-19 14 138 244c76 134 140 248 143 253l5 9-9-5c-82-51-497-288-499-286-1 2-14 24-29 50l-28 47 6 10c4 5 113 72 244 148l237 138-285 5-285 5-3 62-3 63 288 2 288 3-245 139c-135 76-246 140-248 141-1 1 12 28 30 58l32 57 21-14c60-39 468-266 471-263 3 2-59 113-137 247l-141 242 8 7c5 4 30 19 55 34l46 26 144-247 144-247 3 288 2 288 63-3 62-3 3-817zm532 595v-48l-134-185-133-185 133-3 134-3v-109h-420v95l135 185 135 185-135 3-135 3v109h420v-47zm-68-655 42-23 23-34c13-19 23-42 23-51v-17l-29-6c-16-3-40-9-55-13l-26-6v14c0 8-11 25-24 37l-25 23-43 5-43 4-25-13-25-13-3-29-3-28 17-19 17-19 82-25 81-25 34-23c19-12 45-38 57-56l23-34v-73l-22-44-23-44-48-25-49-25-76 1h-77l-46 22c-55 26-83 53-103 103l-16 37 8 4c4 2 24 7 45 11s44 9 51 12l13 5 22-36 21-36 37-15 36-16 33 7c18 3 40 13 49 21l15 15v56l-22 20-23 20-70 23c-38 13-86 31-107 41l-36 19-20 28c-11 15-23 44-27 64l-7 36 20 44 19 45 30 21c16 11 44 25 63 31l35 10 68-4 68-4 41-23z"/></g><g fill="#2a2726" transform="matrix(.1 0 0 -.1 0 300)"><path d="M0 1500V0h3000v3000H0V1500zm1618-2-3-823h-120l-5 280-5 280-138-243c-76-133-140-242-143-242-2 0-29 14-59 31l-55 31 18 32c22 36 171 299 228 401l38 69-39-23c-155-91-433-251-445-255l-15-6-32 52-32 53 15 12c9 6 119 72 244 145l229 133-284 3-285 2v130l284 2 283 3-243 139c-134 76-244 142-244 145s14 30 31 59l30 53 57-32c31-18 134-76 227-129 94-53 181-103 194-110l24-13-22 39c-138 234-254 438-255 451l-1 15 52 30 52 29 57-98c32-54 97-165 146-248l88-150v575h130l-2-822zm532 591v-50l-130-180c-71-99-130-182-130-185 0-2 61-4 135-4h135v-110h-430v102l130 178c72 97 130 180 130 184 0 3-58 6-130 6h-130v110h420v-51zm-74-644 49-24 28-43c15-23 27-47 27-54v-12l-44-11c-25-6-51-11-58-11h-14l-17 30-18 29-36 10-35 10-29-6-28-5-17-19-18-20 10-27 9-27 102-36c118-41 147-58 173-102l20-32v-96l-15-29c-8-16-30-40-47-54l-33-24-48-13-48-12-59 6-59 5-48 26-48 26-22 33c-12 17-25 44-28 58l-6 25 51 12c28 7 57 12 65 12h13l12-30 13-31 28-14 28-15h81l20 20 20 20v41l-24 23-25 22-77 24c-42 14-94 36-115 49l-39 25-15 32-15 32v77l15 29c16 31 37 49 89 78l31 17 76 1h75l50-25z"/></g></g></svg>